<svg width="25" height="24" viewBox="0 0 25 24" fill="none" xmlns="http://www.w3.org/2000/svg">
<path d="M24.7545 20.8098C24.5657 20.6215 19.9254 15.9749 15.128 11.1675C17.328 7.94725 22.1995 0.646192 22.1995 0.646192L22.3264 0L13.6635 9.51526L13.6718 9.70973C8.97182 5.0011 4.53465 0.557379 4.42363 0.446363C4.18723 0.209783 3.85718 0.416503 3.6223 0.657677C3.38666 0.899616 1.1609 3.27843 0.837646 3.60918C1.18431 4.03411 1.48415 3.96673 1.73565 3.70795C1.98867 3.4484 3.67139 1.72267 3.67139 1.72267C3.67139 1.72267 3.75145 1.80306 3.90099 1.95236L1.88142 4.02416L2.15407 4.29749L4.17364 2.22569C4.24312 2.29536 4.32092 2.37346 4.40248 2.45538L2.38291 4.52717L2.65632 4.80127L4.67513 2.72947C4.75066 2.80527 4.82921 2.88337 4.91153 2.96682L2.89347 5.03862L3.16688 5.31271L5.18645 3.24092C5.26046 3.31442 5.3375 3.39174 5.41529 3.46984L3.39572 5.54164L3.66912 5.81497L5.68869 3.7424C5.75138 3.80595 5.81482 3.87026 5.88053 3.93534L3.86096 6.00714L4.13437 6.28124L6.15394 4.20867C6.22946 4.28447 6.30499 4.36027 6.38278 4.43836L4.36321 6.51093L4.63662 6.78426L6.65619 4.71246C6.73549 4.79208 6.8163 4.87247 6.89787 4.9544L4.8783 7.02696L5.1517 7.30029L7.17127 5.22773C7.24605 5.30352 7.32308 5.38009 7.40012 5.45742L5.38055 7.52921L5.65395 7.80254L7.67277 5.73075C7.75132 5.80961 7.82986 5.88847 7.90992 5.96886L5.89035 8.04066L6.163 8.31399L8.18257 6.24219C8.25885 6.31799 8.33513 6.39455 8.41217 6.47111L6.3926 8.54291L6.66676 8.817L8.68558 6.74521C8.74826 6.80876 8.81397 6.87307 8.87817 6.93738L6.8586 9.00994L7.132 9.28327L9.15157 7.21071C9.2271 7.28727 9.30338 7.36384 9.38042 7.4404L7.36085 9.5122L7.63501 9.78553L9.65458 7.71373C9.71802 7.77804 9.78222 7.84159 9.84641 7.9059L7.82684 9.9777L8.10025 10.251L10.1198 8.17923C10.1961 8.2558 10.2716 8.33159 10.3487 8.40816L8.32758 10.4815L8.60099 10.7556L10.6206 8.68302C10.6991 8.76188 10.7777 8.8415 10.857 8.92036L8.83814 10.9929L9.11154 11.2663L11.1304 9.19446C11.2066 9.27026 11.2829 9.34682 11.3592 9.42338L9.34039 11.4952L9.54808 11.7027C7.45072 12.2302 5.63734 11.9676 5.56408 11.9569C4.4546 11.6537 3.15026 11.9882 2.19712 12.9392C0.832359 14.2997 0.698678 16.4128 1.89803 17.6478C3.09815 18.8828 5.18418 18.7802 6.54818 17.4189C6.55196 17.4143 6.55574 17.4097 6.56027 17.4051C6.55876 17.4173 6.55649 17.4258 6.55649 17.4258L13.1832 11.2479C13.2202 11.2846 13.2557 11.3214 13.2934 11.3574L11.2739 13.4292L11.5465 13.7017L11.6658 13.58L7.26719 18.3047C7.22188 18.346 7.17581 18.3843 7.132 18.4272C5.768 19.7893 5.63356 21.9024 6.83292 23.1374C8.03227 24.3716 10.1183 24.2697 11.4831 22.9069C12.4566 21.9361 12.7995 20.5832 12.483 19.4394C12.4543 19.2036 12.15 16.3546 13.4785 13.6834L14.5336 12.5992C19.1958 17.2696 23.6216 21.7033 23.7531 21.8335C24.0317 22.1183 25.148 21.2026 24.7545 20.8098ZM14.3938 9.57421C14.6015 9.36673 14.9376 9.36902 15.1416 9.58034C15.347 9.79165 15.3447 10.1316 15.1355 10.3398C14.9286 10.5473 14.5917 10.545 14.3878 10.3337C14.1824 10.1224 14.1846 9.7817 14.3938 9.57421ZM5.84277 16.693C4.87301 17.6608 3.42442 17.7688 2.61327 16.9335C1.80287 16.0989 1.93202 14.632 2.90102 13.6634C3.87078 12.6957 5.31937 12.5885 6.12977 13.4246C6.94168 14.2599 6.81253 15.7261 5.84277 16.693ZM12.3267 10.3934L12.1107 10.6155C11.792 10.8184 11.4672 10.9975 11.1402 11.1476L12.0986 10.1645C12.1749 10.2403 12.2512 10.3169 12.3267 10.3934ZM11.6326 9.69748C11.6968 9.76179 11.761 9.82611 11.8252 9.89118L10.2663 11.4906C10.0843 11.5518 9.90381 11.6062 9.72482 11.6552L11.6326 9.69748ZM10.7769 22.1849C9.80714 23.1527 8.35855 23.2591 7.54815 22.4246C6.737 21.5893 6.86615 20.1231 7.83591 19.1546C8.80566 18.186 10.2543 18.0796 11.0647 18.9141C11.875 19.7502 11.7459 21.2172 10.7769 22.1849Z" fill="#FBE200"/>
<path d="M16.5471 9.79318L24.8127 2.10089L24.1473 2.25555C24.1473 2.25555 21.9389 3.77456 19.4322 5.50642C18.4587 6.95805 17.4187 8.50616 16.5471 9.79318Z" fill="#FBE200"/>
</svg>
