<svg width="168" height="16" viewBox="0 0 168 16" fill="none" xmlns="http://www.w3.org/2000/svg">
<path d="M0.697647 14.44V2.74C0.697647 2.43333 0.75098 2.17333 0.857647 1.96C0.977647 1.74667 1.12431 1.56667 1.29765 1.42C1.47098 1.27333 1.65765 1.16667 1.85765 1.1C2.07098 1.03333 2.26431 0.999999 2.43765 0.999999H7.35765C8.03765 0.999999 8.67765 1.06667 9.27765 1.2C9.87765 1.32 10.4043 1.53333 10.8576 1.84C11.311 2.14667 11.671 2.56 11.9376 3.08C12.2043 3.58667 12.3376 4.22 12.3376 4.98C12.3376 5.55333 12.191 6.07333 11.8976 6.54C11.6176 7.00667 11.2243 7.38 10.7176 7.66C11.3176 7.9 11.7843 8.31333 12.1176 8.9C12.4643 9.47333 12.6376 10.0733 12.6376 10.7C12.6376 11.4733 12.4976 12.1267 12.2176 12.66C11.951 13.1933 11.5843 13.6333 11.1176 13.98C10.651 14.3133 10.1043 14.56 9.47765 14.72C8.86431 14.8667 8.21098 14.94 7.51765 14.94H1.19765C1.06431 14.94 0.944313 14.8933 0.837647 14.8C0.744313 14.6933 0.697647 14.5733 0.697647 14.44ZM6.93765 6.52C7.39098 6.52 7.75765 6.4 8.03765 6.16C8.31765 5.90667 8.45765 5.54667 8.45765 5.08C8.45765 4.61333 8.31098 4.26667 8.01765 4.04C7.73765 3.8 7.37765 3.68 6.93765 3.68H3.33765C3.64431 3.68 3.90431 3.79333 4.11765 4.02C4.33098 4.23333 4.43765 4.47333 4.43765 4.74V5.94C4.43765 6.06 4.49098 6.18667 4.59765 6.32C4.70431 6.45333 4.85098 6.52 5.03765 6.52H6.93765ZM7.11765 12.24C7.59765 12.24 7.98431 12.1067 8.27765 11.84C8.58431 11.5733 8.73765 11.1933 8.73765 10.7C8.73765 10.22 8.58431 9.84 8.27765 9.56C7.97098 9.26667 7.58431 9.12 7.11765 9.12H3.33765C3.64431 9.12 3.90431 9.23333 4.11765 9.46C4.33098 9.67333 4.43765 9.91333 4.43765 10.18V11.64C4.43765 11.7733 4.48431 11.9067 4.57765 12.04C4.68431 12.1733 4.83765 12.24 5.03765 12.24H7.11765ZM13.7583 14.88C13.6783 14.7733 13.6383 14.6733 13.6383 14.58C13.6383 14.4867 13.6449 14.4267 13.6583 14.4L18.2983 1.64C18.4449 1.25333 18.7116 1.06 19.0983 1.06H22.1983C22.5849 1.06 22.8516 1.25333 22.9983 1.64L27.6383 14.4C27.6516 14.4267 27.6583 14.4867 27.6583 14.58C27.6583 14.6867 27.6116 14.7867 27.5183 14.88C27.4383 14.96 27.3449 15 27.2383 15H24.6583C24.3249 15 24.0983 14.8533 23.9783 14.56L22.9383 11.74C22.4583 11.9267 21.9716 12.08 21.4783 12.2C20.9849 12.32 20.5049 12.4133 20.0383 12.48C19.5849 12.5333 19.1583 12.5733 18.7583 12.6C18.3583 12.6133 18.0116 12.62 17.7183 12.62C17.5316 12.62 17.3716 12.62 17.2383 12.62C17.1049 12.62 17.0049 12.6133 16.9383 12.6C17.1916 12.6267 17.3916 12.76 17.5383 13C17.6983 13.2267 17.7183 13.4933 17.5983 13.8L17.3183 14.56C17.1983 14.8533 16.9716 15 16.6383 15H14.0583C13.9649 15 13.8649 14.96 13.7583 14.88ZM18.8383 9.76C19.2116 9.73333 19.5983 9.68667 19.9983 9.62C20.3449 9.56667 20.7049 9.49333 21.0783 9.4C21.4649 9.29333 21.8316 9.14667 22.1783 8.96L20.6383 4.56L18.8383 9.76ZM41.0128 14.84C40.9328 14.92 40.8328 14.96 40.7128 14.96H37.9128C37.5261 14.96 37.2528 14.78 37.0928 14.42L35.0728 10.42C34.9528 10.2067 34.7728 10.1 34.5328 10.1H31.8928C32.2395 10.1 32.5061 10.22 32.6928 10.46C32.8928 10.7 32.9928 10.9333 32.9928 11.16V14.46C32.9928 14.62 32.9461 14.7467 32.8528 14.84C32.7595 14.92 32.6328 14.96 32.4728 14.96H29.7528C29.6061 14.96 29.4861 14.9133 29.3928 14.82C29.2995 14.7267 29.2528 14.6067 29.2528 14.46V2.76C29.2528 2.26667 29.4261 1.85333 29.7728 1.52C30.1195 1.18667 30.5261 1.02 30.9928 1.02H35.2328C35.9795 1.02 36.6861 1.10667 37.3528 1.28C38.0328 1.44 38.6261 1.7 39.1328 2.06C39.6395 2.42 40.0461 2.89333 40.3528 3.48C40.6595 4.05333 40.8128 4.75333 40.8128 5.58C40.8128 6.40667 40.6395 7.13333 40.2928 7.76C39.9595 8.38667 39.4261 8.9 38.6928 9.3C38.5861 9.38 38.5328 9.46667 38.5328 9.56C38.5328 9.65333 38.5461 9.72667 38.5728 9.78L41.0728 14.32C41.1128 14.4 41.1328 14.4733 41.1328 14.54C41.1328 14.6333 41.0928 14.7333 41.0128 14.84ZM36.9528 5.56C36.9528 5.01333 36.7928 4.6 36.4728 4.32C36.1661 4.02667 35.7461 3.88 35.2128 3.88H31.7728C32.0928 3.88 32.3528 4 32.5528 4.24C32.7528 4.46667 32.8528 4.70667 32.8528 4.96V6.56C32.8528 6.73333 32.9128 6.88 33.0328 7C33.1528 7.12 33.2995 7.18 33.4728 7.18H35.2128C35.7461 7.18 36.1661 7.04667 36.4728 6.78C36.7928 6.51333 36.9528 6.10667 36.9528 5.56ZM43.1391 14.44V2.74C43.1391 2.43333 43.1924 2.17333 43.2991 1.96C43.4191 1.74667 43.5657 1.56667 43.7391 1.42C43.9124 1.27333 44.0991 1.16667 44.2991 1.1C44.5124 1.03333 44.7057 0.999999 44.8791 0.999999H49.7991C50.4791 0.999999 51.1191 1.06667 51.7191 1.2C52.3191 1.32 52.8457 1.53333 53.2991 1.84C53.7524 2.14667 54.1124 2.56 54.3791 3.08C54.6457 3.58667 54.7791 4.22 54.7791 4.98C54.7791 5.55333 54.6324 6.07333 54.3391 6.54C54.0591 7.00667 53.6657 7.38 53.1591 7.66C53.7591 7.9 54.2257 8.31333 54.5591 8.9C54.9057 9.47333 55.0791 10.0733 55.0791 10.7C55.0791 11.4733 54.9391 12.1267 54.6591 12.66C54.3924 13.1933 54.0257 13.6333 53.5591 13.98C53.0924 14.3133 52.5457 14.56 51.9191 14.72C51.3057 14.8667 50.6524 14.94 49.9591 14.94H43.6391C43.5057 14.94 43.3857 14.8933 43.2791 14.8C43.1857 14.6933 43.1391 14.5733 43.1391 14.44ZM49.3791 6.52C49.8324 6.52 50.1991 6.4 50.4791 6.16C50.7591 5.90667 50.8991 5.54667 50.8991 5.08C50.8991 4.61333 50.7524 4.26667 50.4591 4.04C50.1791 3.8 49.8191 3.68 49.3791 3.68H45.7791C46.0857 3.68 46.3457 3.79333 46.5591 4.02C46.7724 4.23333 46.8791 4.47333 46.8791 4.74V5.94C46.8791 6.06 46.9324 6.18667 47.0391 6.32C47.1457 6.45333 47.2924 6.52 47.4791 6.52H49.3791ZM49.5591 12.24C50.0391 12.24 50.4257 12.1067 50.7191 11.84C51.0257 11.5733 51.1791 11.1933 51.1791 10.7C51.1791 10.22 51.0257 9.84 50.7191 9.56C50.4124 9.26667 50.0257 9.12 49.5591 9.12H45.7791C46.0857 9.12 46.3457 9.23333 46.5591 9.46C46.7724 9.67333 46.8791 9.91333 46.8791 10.18V11.64C46.8791 11.7733 46.9257 11.9067 47.0191 12.04C47.1257 12.1733 47.2791 12.24 47.4791 12.24H49.5591ZM57.2997 14.46V2.76C57.2997 2.25333 57.473 1.84 57.8197 1.52C58.1663 1.18667 58.573 1.02 59.0397 1.02H67.1997C67.333 1.02 67.453 1.07333 67.5597 1.18C67.6663 1.28667 67.7197 1.40667 67.7197 1.54V3.52C67.7197 3.66667 67.6663 3.78 67.5597 3.86C67.4663 3.95333 67.3463 4 67.1997 4H59.7997C60.1197 4 60.3797 4.11333 60.5797 4.34C60.793 4.56667 60.8997 4.81333 60.8997 5.08V5.92C60.8997 6.06667 60.953 6.20667 61.0597 6.34C61.1663 6.47333 61.3197 6.54 61.5197 6.54H65.8597C66.2063 6.54 66.3797 6.71333 66.3797 7.06V8.86C66.3797 9.20667 66.2063 9.38 65.8597 9.38H59.7997C60.1063 9.38 60.3663 9.48667 60.5797 9.7C60.793 9.91333 60.8997 10.1533 60.8997 10.42V11.36C60.8997 11.5067 60.953 11.6467 61.0597 11.78C61.1797 11.9133 61.333 11.98 61.5197 11.98H67.3597C67.5063 11.98 67.6263 12.0333 67.7197 12.14C67.8263 12.2333 67.8797 12.3533 67.8797 12.5V14.46C67.8797 14.6067 67.8263 14.7267 67.7197 14.82C67.613 14.9133 67.493 14.96 67.3597 14.96H57.7997C57.653 14.96 57.533 14.9133 57.4397 14.82C57.3463 14.7267 57.2997 14.6067 57.2997 14.46ZM81.8917 14.84C81.8117 14.92 81.7117 14.96 81.5917 14.96H78.7917C78.405 14.96 78.1317 14.78 77.9717 14.42L75.9517 10.42C75.8317 10.2067 75.6517 10.1 75.4117 10.1H72.7717C73.1184 10.1 73.385 10.22 73.5717 10.46C73.7717 10.7 73.8717 10.9333 73.8717 11.16V14.46C73.8717 14.62 73.825 14.7467 73.7317 14.84C73.6384 14.92 73.5117 14.96 73.3517 14.96H70.6317C70.485 14.96 70.365 14.9133 70.2717 14.82C70.1784 14.7267 70.1317 14.6067 70.1317 14.46V2.76C70.1317 2.26667 70.305 1.85333 70.6517 1.52C70.9984 1.18667 71.405 1.02 71.8717 1.02H76.1117C76.8584 1.02 77.565 1.10667 78.2317 1.28C78.9117 1.44 79.505 1.7 80.0117 2.06C80.5184 2.42 80.925 2.89333 81.2317 3.48C81.5384 4.05333 81.6917 4.75333 81.6917 5.58C81.6917 6.40667 81.5184 7.13333 81.1717 7.76C80.8384 8.38667 80.305 8.9 79.5717 9.3C79.465 9.38 79.4117 9.46667 79.4117 9.56C79.4117 9.65333 79.425 9.72667 79.4517 9.78L81.9517 14.32C81.9917 14.4 82.0117 14.4733 82.0117 14.54C82.0117 14.6333 81.9717 14.7333 81.8917 14.84ZM77.8317 5.56C77.8317 5.01333 77.6717 4.6 77.3517 4.32C77.045 4.02667 76.625 3.88 76.0917 3.88H72.6517C72.9717 3.88 73.2317 4 73.4317 4.24C73.6317 4.46667 73.7317 4.70667 73.7317 4.96V6.56C73.7317 6.73333 73.7917 6.88 73.9117 7C74.0317 7.12 74.1784 7.18 74.3517 7.18H76.0917C76.625 7.18 77.045 7.04667 77.3517 6.78C77.6717 6.51333 77.8317 6.10667 77.8317 5.56ZM124.381 10.76C124.381 11.5733 124.195 12.2667 123.821 12.84C123.448 13.4 122.968 13.8533 122.381 14.2C121.795 14.5333 121.141 14.78 120.421 14.94C119.701 15.0867 119.001 15.16 118.321 15.16C117.855 15.16 117.368 15.1267 116.861 15.06C116.355 15.0067 115.861 14.9 115.381 14.74C114.915 14.58 114.468 14.3733 114.041 14.12C113.628 13.8533 113.275 13.52 112.981 13.12C112.501 12.5067 112.255 11.8467 112.241 11.14C112.241 11.02 112.281 10.92 112.361 10.84C112.468 10.76 112.575 10.72 112.681 10.72H115.321C115.495 10.72 115.628 10.7467 115.721 10.8C115.828 10.8533 115.935 10.9467 116.041 11.08C116.281 11.5067 116.601 11.8 117.001 11.96C117.415 12.1067 117.855 12.18 118.321 12.18C118.521 12.18 118.748 12.1667 119.001 12.14C119.255 12.1 119.495 12.04 119.721 11.96C119.948 11.8667 120.141 11.74 120.301 11.58C120.461 11.42 120.541 11.2067 120.541 10.94C120.541 10.5933 120.401 10.34 120.121 10.18C119.841 10.0067 119.561 9.87333 119.281 9.78C119.068 9.71333 118.801 9.64 118.481 9.56C118.175 9.48 117.815 9.39333 117.401 9.3C116.788 9.18 116.195 9.02667 115.621 8.84C115.048 8.65333 114.535 8.4 114.081 8.08C113.641 7.76 113.281 7.36 113.001 6.88C112.735 6.38667 112.601 5.78 112.601 5.06C112.601 4.3 112.768 3.65333 113.101 3.12C113.448 2.57333 113.888 2.13333 114.421 1.8C114.955 1.45333 115.548 1.20667 116.201 1.06C116.868 0.899999 117.528 0.819999 118.181 0.819999C118.635 0.819999 119.095 0.859999 119.561 0.94C120.041 1.02 120.501 1.14667 120.941 1.32C121.381 1.49333 121.788 1.71333 122.161 1.98C122.548 2.24667 122.888 2.56667 123.181 2.94C123.635 3.54 123.875 4.13333 123.901 4.72C123.901 4.82667 123.861 4.93333 123.781 5.04C123.701 5.12 123.601 5.16 123.481 5.16H120.701C120.408 5.16 120.181 5.04 120.021 4.8C119.968 4.61333 119.875 4.46 119.741 4.34C119.608 4.20667 119.448 4.10667 119.261 4.04C119.088 3.96 118.908 3.90667 118.721 3.88C118.535 3.84 118.355 3.82 118.181 3.82C117.981 3.82 117.775 3.83333 117.561 3.86C117.361 3.88667 117.175 3.94667 117.001 4.04C116.841 4.12 116.701 4.24 116.581 4.4C116.475 4.54667 116.421 4.74 116.421 4.98C116.421 5.36667 116.621 5.67333 117.021 5.9C117.421 6.11333 118.161 6.33333 119.241 6.56C119.881 6.66667 120.508 6.80667 121.121 6.98C121.748 7.15333 122.301 7.39333 122.781 7.7C123.261 8.00667 123.648 8.40667 123.941 8.9C124.235 9.38 124.381 10 124.381 10.76ZM126.402 14.5V2.8C126.402 2.30667 126.575 1.89333 126.922 1.56C127.268 1.22667 127.675 1.06 128.142 1.06H129.622C129.768 1.06 129.888 1.11333 129.982 1.22C130.088 1.31333 130.142 1.43333 130.142 1.58V6.22C130.142 6.44667 130.222 6.60667 130.382 6.7C130.542 6.78 130.668 6.82 130.762 6.82C131.588 6.82 132.275 6.76 132.822 6.64C133.382 6.52 133.922 6.34667 134.442 6.12C134.548 6.06667 134.642 5.99333 134.722 5.9C134.802 5.80667 134.842 5.68667 134.842 5.54V2.8C134.842 2.53333 134.888 2.29333 134.982 2.08C135.088 1.86667 135.222 1.68667 135.382 1.54C135.555 1.39333 135.742 1.28 135.942 1.2C136.155 1.10667 136.368 1.06 136.582 1.06H138.062C138.208 1.06 138.328 1.11333 138.422 1.22C138.528 1.31333 138.582 1.43333 138.582 1.58V14.5C138.582 14.66 138.535 14.7867 138.442 14.88C138.348 14.96 138.222 15 138.062 15H135.362C135.228 15 135.108 14.9533 135.002 14.86C134.895 14.7667 134.842 14.6467 134.842 14.5V9.76C134.842 9.56 134.775 9.42 134.642 9.34C134.522 9.24667 134.388 9.2 134.242 9.2C134.148 9.2 134.082 9.20667 134.042 9.22C133.388 9.40667 132.728 9.53333 132.062 9.6C131.408 9.65333 130.828 9.68 130.322 9.68C130.055 9.68 129.828 9.68 129.642 9.68C129.455 9.66667 129.308 9.65333 129.202 9.64C129.468 9.68 129.688 9.8 129.862 10C130.048 10.2 130.142 10.4267 130.142 10.68V14.5C130.142 14.66 130.095 14.7867 130.002 14.88C129.908 14.96 129.782 15 129.622 15H126.902C126.755 15 126.635 14.9533 126.542 14.86C126.448 14.7667 126.402 14.6467 126.402 14.5ZM147.123 15.2C145.229 15.2 143.736 14.74 142.643 13.82C141.549 12.9 140.969 11.5467 140.903 9.76C140.889 9.38667 140.883 8.81333 140.883 8.04C140.883 7.26667 140.889 6.68667 140.903 6.3C140.956 4.54 141.536 3.18667 142.643 2.24C143.763 1.28 145.256 0.799999 147.123 0.799999C148.976 0.799999 150.456 1.28 151.563 2.24C152.683 3.18667 153.269 4.54 153.323 6.3C153.349 7.07333 153.363 7.65333 153.363 8.04C153.363 8.44 153.349 9.01333 153.323 9.76C153.256 11.5467 152.676 12.9 151.583 13.82C150.503 14.74 149.016 15.2 147.123 15.2ZM147.123 12.2C147.816 12.2 148.369 11.9933 148.783 11.58C149.196 11.1533 149.416 10.5067 149.443 9.64C149.469 8.86667 149.483 8.31333 149.483 7.98C149.483 7.64667 149.469 7.10667 149.443 6.36C149.416 5.49333 149.196 4.85333 148.783 4.44C148.369 4.01333 147.816 3.8 147.123 3.8C146.416 3.8 145.856 4.01333 145.443 4.44C145.029 4.85333 144.809 5.49333 144.783 6.36C144.769 6.73333 144.763 7.27333 144.763 7.98C144.763 8.7 144.769 9.25333 144.783 9.64C144.809 10.5067 145.029 11.1533 145.443 11.58C145.856 11.9933 146.416 12.2 147.123 12.2ZM167.399 5.62C167.399 6.46 167.252 7.17333 166.959 7.76C166.666 8.33333 166.266 8.8 165.759 9.16C165.266 9.50667 164.686 9.76 164.019 9.92C163.352 10.0667 162.639 10.14 161.879 10.14H160.199C160.039 10.14 159.899 10.1933 159.779 10.3C159.659 10.4067 159.599 10.5533 159.599 10.74V14.44C159.599 14.5733 159.552 14.6867 159.459 14.78C159.379 14.8867 159.259 14.94 159.099 14.94H156.239C156.106 14.94 155.986 14.8933 155.879 14.8C155.786 14.6933 155.739 14.5733 155.739 14.44V2.74C155.739 2.46 155.792 2.21333 155.899 2C156.006 1.77333 156.146 1.58667 156.319 1.44C156.492 1.29333 156.679 1.18667 156.879 1.12C157.079 1.04 157.279 0.999999 157.479 0.999999H161.879C162.639 0.999999 163.352 1.08667 164.019 1.26C164.699 1.42 165.286 1.68667 165.779 2.06C166.286 2.42 166.679 2.89333 166.959 3.48C167.252 4.06667 167.399 4.78 167.399 5.62ZM163.519 5.6C163.519 4.44 162.939 3.86 161.779 3.86H158.399C158.506 3.86 158.626 3.88667 158.759 3.94C158.892 3.98 159.012 4.04667 159.119 4.14C159.239 4.23333 159.339 4.35333 159.419 4.5C159.499 4.63333 159.539 4.78667 159.539 4.96V6.68C159.539 6.86667 159.599 7.02 159.719 7.14C159.852 7.24667 159.999 7.3 160.159 7.3H161.779C162.326 7.3 162.752 7.15333 163.059 6.86C163.366 6.56667 163.519 6.14667 163.519 5.6Z" fill="#FAFAFA"/>
</svg>
