<svg width="35" height="35" viewBox="0 0 35 35" fill="none" xmlns="http://www.w3.org/2000/svg">
<path d="M4.11081 0C1.86438 0 0.0256653 1.83813 0.0256653 4.08384V30.2204C0.0256653 32.4662 1.86438 34.3043 4.11081 34.3043H17.8631C17.9513 34.3189 18.0413 34.3189 18.1296 34.3043H22.7652C22.8535 34.3189 22.9435 34.3189 23.0317 34.3043H30.2557C32.5022 34.3043 34.3409 32.4662 34.3409 30.2204V4.08384C34.3409 1.83813 32.5022 0 30.2557 0H4.11081ZM4.11081 1.63354H30.2557C31.6189 1.63354 32.7068 2.72108 32.7068 4.08384V30.2204C32.7068 31.5832 31.6189 32.6708 30.2557 32.6708H23.7195V21.236H26.8408L27.985 15.5186H23.7195V13.8851C23.7195 13.4297 23.7629 13.3941 23.9158 13.2948C24.0687 13.1955 24.5413 13.0683 25.3536 13.0683H27.8047V8.46919L27.3387 8.24745C27.3387 8.24745 25.4619 7.35092 22.9025 7.35092C21.0642 7.35092 19.554 8.08311 18.5875 9.29075C17.6211 10.4984 17.1833 12.1154 17.1833 13.8851V15.5186H14.7322V21.236H17.1833V32.6708H4.11081C2.74761 32.6708 1.65972 31.5832 1.65972 30.2204V4.08384C1.65972 2.72108 2.74761 1.63354 4.11081 1.63354ZM22.9025 8.98446C24.6011 8.98446 25.6701 9.35891 26.1706 9.55715V11.4348H25.3536C24.4133 11.4348 23.6598 11.5125 23.0254 11.9245C22.3909 12.3365 22.0855 13.1185 22.0855 13.8851V17.1521H25.9903L25.5004 19.6025H22.0855V32.6708H18.8173V19.6025H16.3662V17.1521H18.8173V13.8851C18.8173 12.3877 19.1965 11.146 19.8642 10.3117C20.5318 9.47742 21.4727 8.98446 22.9025 8.98446Z" fill="white"/>
</svg>
