<svg width="36" height="35" viewBox="0 0 36 35" fill="none" xmlns="http://www.w3.org/2000/svg">
<path d="M10.849 0C5.27636 0 0.710449 4.56591 0.710449 10.1386V24.1766C0.710449 29.7493 5.27636 34.3152 10.849 34.3152H24.8871C30.4598 34.3152 35.0257 29.7493 35.0257 24.1766V10.1386C35.0257 4.56591 30.4598 0 24.8871 0H10.849ZM10.849 1.55978H24.8871C29.609 1.55978 33.4659 5.4167 33.4659 10.1386V24.1766C33.4659 28.8985 29.609 32.7554 24.8871 32.7554H10.849C6.12715 32.7554 2.27023 28.8985 2.27023 24.1766V10.1386C2.27023 5.4167 6.12715 1.55978 10.849 1.55978ZM27.2268 6.23913C26.3689 6.23913 25.667 6.94103 25.667 7.79891C25.667 8.65679 26.3689 9.3587 27.2268 9.3587C28.0846 9.3587 28.7865 8.65679 28.7865 7.79891C28.7865 6.94103 28.0846 6.23913 27.2268 6.23913ZM17.8681 8.57881C13.1533 8.57881 9.28926 12.4428 9.28926 17.1576C9.28926 21.8724 13.1533 25.7364 17.8681 25.7364C22.5829 25.7364 26.4469 21.8724 26.4469 17.1576C26.4469 12.4428 22.5829 8.57881 17.8681 8.57881ZM17.8681 10.1386C21.7321 10.1386 24.8871 13.2936 24.8871 17.1576C24.8871 21.0216 21.7321 24.1766 17.8681 24.1766C14.0041 24.1766 10.849 21.0216 10.849 17.1576C10.849 13.2936 14.0041 10.1386 17.8681 10.1386Z" fill="white"/>
</svg>
