<svg width="21" height="20" viewBox="0 0 21 20" fill="none" xmlns="http://www.w3.org/2000/svg">
<path d="M19.5067 0.871321C19.2799 0.880393 19.0585 0.943904 18.8607 1.02375C18.6647 1.10177 17.5324 1.58445 15.8612 2.2994C14.19 3.01434 12.0179 3.94522 9.864 4.86703C5.55618 6.71246 1.32458 8.52704 1.32458 8.52704L1.35543 8.51615C1.35543 8.51615 1.09957 8.60143 0.840087 8.78108C0.711252 8.87181 0.57153 8.98794 0.457211 9.15851C0.344707 9.32908 0.261236 9.56861 0.292084 9.82265C0.402773 10.7172 1.32821 10.9713 1.32821 10.9713L1.33365 10.9731L5.46908 12.3885C5.57433 12.7405 6.72296 16.5747 6.97519 17.3876C7.11491 17.8358 7.24556 18.0953 7.38165 18.2713C7.45061 18.3602 7.52137 18.4274 7.60122 18.4782C7.63206 18.4982 7.66473 18.5127 7.69739 18.5272C7.69739 18.5272 7.6992 18.5254 7.6992 18.5272C7.70283 18.5272 7.70646 18.529 7.71191 18.5308L7.70102 18.5272C7.70828 18.5308 7.71553 18.5363 7.72279 18.5381C7.73731 18.5435 7.74638 18.5435 7.76634 18.5472C8.23995 18.7123 8.6319 18.4056 8.6319 18.4056L8.64823 18.3929L11.1886 16.0376L15.3114 19.2512L15.3622 19.2748C16.0844 19.596 16.7358 19.4163 17.0987 19.1224C17.4598 18.8284 17.6014 18.4492 17.6014 18.4492L17.6177 18.4092L20.6462 2.62058C20.7243 2.26673 20.7352 1.96188 20.6626 1.68607C20.5882 1.40844 20.4103 1.16891 20.189 1.03645C19.9658 0.903983 19.7317 0.860433 19.5067 0.871321ZM19.5303 1.8149C19.6228 1.81127 19.69 1.82035 19.7117 1.83305C19.7335 1.84757 19.7426 1.84575 19.7644 1.92378C19.7843 1.99999 19.7952 2.16512 19.7389 2.42097L19.7371 2.42642L16.7249 18.1244C16.7177 18.1407 16.6542 18.2859 16.5126 18.402C16.3656 18.5217 16.2023 18.6143 15.7723 18.4328L11.263 14.9162L11.136 14.8164L11.1342 14.82L9.78597 13.8075L17.3618 4.89425C17.4816 4.75452 17.507 4.55855 17.4272 4.39342C17.3491 4.22648 17.1804 4.12305 16.9971 4.12849C16.9082 4.13031 16.8229 4.15753 16.7503 4.20652L5.78664 11.5157L1.64576 10.0966C1.64576 10.0966 1.23385 9.86801 1.21389 9.70833C1.21208 9.70107 1.20845 9.70833 1.23022 9.67567C1.25018 9.64482 1.30462 9.59038 1.37176 9.5432C1.50604 9.45066 1.66028 9.39259 1.66028 9.39259L1.67661 9.38715L1.69113 9.3817C1.69113 9.3817 5.92454 7.56531 10.2305 5.71988C12.3845 4.79807 14.5565 3.86901 16.2277 3.15406C17.8971 2.43912 19.1038 1.92559 19.2073 1.88386C19.3234 1.83849 19.4377 1.81853 19.5303 1.8149ZM14.5057 6.81952L8.76073 13.5788L8.7571 13.5825C8.74803 13.5933 8.73896 13.6042 8.7317 13.6151C8.72263 13.6278 8.71355 13.6423 8.7063 13.655C8.67363 13.7095 8.65367 13.7712 8.64641 13.8329C8.6446 13.8347 8.6446 13.8365 8.64641 13.8365L7.89699 17.2025C7.88429 17.1663 7.87522 17.1536 7.86252 17.11C7.62481 16.3461 6.5415 12.7296 6.39089 12.2306L14.5057 6.81952ZM9.40854 14.6875L10.441 15.4624L8.92405 16.8687L9.40854 14.6875Z" fill="white"/>
</svg>
