<svg width="20" height="23" viewBox="0 0 20 23" fill="none" xmlns="http://www.w3.org/2000/svg">
<path d="M10.905 20.8218C10.616 21.1239 10.3591 21.3857 10.145 21.6005C9.93089 21.3857 9.674 21.1239 9.38498 20.8218C8.50971 19.9069 7.34517 18.6276 6.18329 17.1666C5.0187 15.7023 3.87324 14.0759 3.02314 12.466C2.16406 10.8392 1.65625 9.32115 1.65625 8.05C1.65625 4.29964 5.29088 1 10.145 1C14.9991 1 18.6337 4.29964 18.6337 8.05C18.6337 9.32115 18.1259 10.8392 17.2668 12.466C16.4168 14.0759 15.2713 15.7023 14.1067 17.1666C12.9448 18.6276 11.7803 19.9069 10.905 20.8218ZM5.75616 8.05C5.75616 10.3371 7.88255 11.925 10.145 11.925C12.4074 11.925 14.5338 10.3371 14.5338 8.05C14.5338 5.76286 12.4074 4.175 10.145 4.175C7.88255 4.175 5.75616 5.76286 5.75616 8.05Z" stroke="white" stroke-width="2"/>
</svg>
