<svg width="20" height="19" viewBox="0 0 20 19" fill="none" xmlns="http://www.w3.org/2000/svg">
<path d="M18.6295 13.1944C17.3079 13.1944 16.0392 12.9833 14.8551 12.5928C14.4851 12.4767 14.0728 12.5611 13.7767 12.8461L11.4508 15.1683C8.45876 13.6483 6.00594 11.21 4.4835 8.21222L6.80945 5.87944C7.10548 5.605 7.19006 5.19333 7.07376 4.82389C6.68258 3.64167 6.47113 2.375 6.47113 1.05556C6.47113 0.475 5.99537 0 5.41388 0H1.7135C1.13201 0 0.65625 0.475 0.65625 1.05556C0.65625 10.9672 8.70193 19 18.6295 19C19.211 19 19.6868 18.525 19.6868 17.9444V14.25C19.6868 13.6694 19.211 13.1944 18.6295 13.1944ZM17.5723 9.5H19.6868C19.6868 4.25389 15.426 0 10.1715 0V2.11111C14.2631 2.11111 17.5723 5.415 17.5723 9.5ZM13.3433 9.5H15.4578C15.4578 6.58667 13.0895 4.22222 10.1715 4.22222V6.33333C11.9265 6.33333 13.3433 7.74778 13.3433 9.5Z" fill="white"/>
</svg>
